<?xml version="1.0" encoding="UTF-8"?>
<svg id="Layer_2" data-name="Layer 2" xmlns="http://www.w3.org/2000/svg" viewBox="0 0 515.55 516.13">
  <defs>
    <style>
      .cls-1 {
        fill: #9da9f4;
      }

      .cls-2 {
        fill: #7a82ed;
      }

      .cls-3 {
        fill: #8c96f2;
      }
    </style>
  </defs>
  <g id="Layer_1-2" data-name="Layer 1">
    <path class="cls-1" d="M458.83,0c2.05.5,4.2.61,6.27,1.03,28.01,5.66,48.64,29.85,50.04,58.41-.94,26.06,1.26,53.01.02,78.96-1.62,33.85-29.18,59.97-63.01,60.04H62.7c-27.84-.08-52.72-18.27-60.4-45.07l-2.3-11.25V56.01C2.78,30.65,20.58,9.02,45.22,2.17l10.79-2.17h402.82Z"/>
    <path class="cls-2" d="M0,460.7v-107.85c1.97-3.6,5.89-4.93,9.74-3.63s4.51,3.97,6.79,6.62c8.72,10.12,18.88,15.71,32.47,16.39h416.85c12.54-.41,23.36-5.94,31.57-15.2,2.39-2.7,4.14-6.59,7.73-7.77,4.3-1.41,9.46.24,10,5.23v101.91c-.84,27.59-18.31,57.43-48.11,59.74H48.1c-23.85-1.62-40.47-21.72-46-43.68l-2.11-11.75Z"/>
    <path class="cls-3" d="M0,289.74v-82.83c1.51-3.4,4.6-4.53,8.19-4.17,4.78.48,6.42,4.85,9.24,8.05,7.81,8.86,18.13,14.45,30.08,15.2h420.12c10.35-.76,20.08-5.25,27.41-12.51,2.54-2.52,6.33-8.74,9.07-9.99,4.32-1.98,10.3-.49,11.02,4.77-.83,25.52,1.1,51.74.01,77.18-1.18,27.8-18,57.26-48.12,59.74H48.1c-23.85-1.62-40.47-21.72-46-43.68l-2.11-11.75Z"/>
  </g>
</svg>